HIERARCHY
ROOT Hips
{
    OFFSET 0.000000 0.000000 0.000000
    CHANNELS 6 Xposition Yposition Zposition Zrotation Xrotation Yrotation
    JOINT Spine
    {
        OFFSET -0.000000 7.236184 0.000000
        CHANNELS 3 Zrotation Xrotation Yrotation
        JOINT Spine1
        {
            OFFSET -0.000000 20.420147 0.000000
            CHANNELS 3 Zrotation Xrotation Yrotation
            JOINT Neck
            {
                OFFSET -0.000000 20.336288 1.848754
                CHANNELS 3 Zrotation Xrotation Yrotation
                JOINT Head
                {
                    OFFSET -0.000000 12.354461 -1.764923
                    CHANNELS 3 Zrotation Xrotation Yrotation
                    End Site
                    {
                        OFFSET -0.000000 22.061537 0.000000
                    }
                }
            }
            JOINT LeftShoulder
            {
                OFFSET 3.573296 18.396038 -0.314103
                CHANNELS 3 Zrotation Xrotation Yrotation
                JOINT LeftArm
                {
                    OFFSET 10.880760 0.000000 0.000000
                    CHANNELS 3 Zrotation Xrotation Yrotation
                    JOINT LeftForeArm
                    {
                        OFFSET 27.185530 0.000000 0.000000
                        CHANNELS 3 Zrotation Xrotation Yrotation
                        JOINT LeftHand
                        {
                            OFFSET 27.825975 0.000000 0.000000
                            CHANNELS 3 Zrotation Xrotation Yrotation
                            End Site
                            {
                                OFFSET 13.236923 0.000000 0.000000
                            }
                        }
                    }
                }
            }
            JOINT RightShoulder
            {
                OFFSET -3.474926 18.396038 -0.314103
                CHANNELS 3 Zrotation Xrotation Yrotation
                JOINT RightArm
                {
                    OFFSET -10.880760 0.000000 0.000000
                    CHANNELS 3 Zrotation Xrotation Yrotation
                    JOINT RightForeArm
                    {
                        OFFSET -27.185530 0.000000 0.000000
                        CHANNELS 3 Zrotation Xrotation Yrotation
                        JOINT RightHand
                        {
                            OFFSET -27.825975 0.000000 0.000000
                            CHANNELS 3 Zrotation Xrotation Yrotation
                            End Site
                            {
                                OFFSET -13.236923 0.000000 0.000000
                            }
                        }
                    }
                }
            }
        }
    }
    JOINT LeftUpLeg
    {
        OFFSET 8.824615 0.000000 0.000000
        CHANNELS 3 Zrotation Xrotation Yrotation
        JOINT LeftLeg
        {
            OFFSET -0.000000 -35.111282 0.000000
            CHANNELS 3 Zrotation Xrotation Yrotation
            JOINT LeftFoot
            {
                OFFSET -0.000000 -42.324711 0.000000
                CHANNELS 3 Zrotation Xrotation Yrotation
                JOINT LeftToeBase
                {
                    OFFSET -0.000000 -5.735999 13.236923
                    CHANNELS 3 Zrotation Xrotation Yrotation
                    End Site
                    {
                        OFFSET -0.000000 0.000000 3.529846
                    }
                }
            }
        }
    }
    JOINT RightUpLeg
    {
        OFFSET -8.824615 0.000000 0.000000
        CHANNELS 3 Zrotation Xrotation Yrotation
        JOINT RightLeg
        {
            OFFSET -0.000000 -35.111282 0.000000
            CHANNELS 3 Zrotation Xrotation Yrotation
            JOINT RightFoot
            {
                OFFSET -0.000000 -42.324711 0.000000
                CHANNELS 3 Zrotation Xrotation Yrotation
                JOINT RightToeBase
                {
                    OFFSET -0.000000 -5.735999 13.236923
                    CHANNELS 3 Zrotation Xrotation Yrotation
                    End Site
                    {
                        OFFSET -0.000000 0.000000 3.529846
                    }
                }
            }
        }
    }
}
MOTION
Frames:    13
Frame Time:    0.008333
12.967142    74.494888    118.706596    -2.768309    -25.457596    -175.062469    -3.594967    -4.834126    0.159665    1.940795    8.030605    0.175506    0.975868    -5.724911    0.912774    2.737274    -24.556662    1.711788    6.431097    -1.736667    -18.327381    -22.129223    3.716129    -75.756386    13.308817    1.302519    -13.172529    22.580141    2.073987    -3.865139    -8.958067    2.918092    14.697443    19.687462    -0.096913    67.558319    -19.946417    -2.353473    21.010443    -13.517459    0.691283    5.838721    23.037321    -53.059792    9.843515    3.828864    43.121059    6.267933    -19.190199    0.590754    -20.863831    -1.067385    -5.053072    1.194473    -30.549805    -48.770649    -15.886686    1.797305    50.155148    5.605241    10.720514    -17.261263    -17.390507    -0.230722    -3.071776    0.250629    
12.498026    74.229630    118.746613    -2.614958    -25.554478    -175.085129    -3.645448    -4.739166    0.118820    2.103438    8.026938    0.122211    0.965833    -6.008679    0.903805    2.773285    -24.982620    1.724565    6.610385    -1.967526    -18.533377    -21.962643    3.446808    -75.976906    13.271577    1.442248    -13.167830    22.154715    2.245180    -3.755236    -9.064420    2.877209    14.765846    20.011793    -0.398216    67.781105    -20.095081    -2.282388    21.234760    -13.233792    0.861236    5.713216    23.154467    -53.736050    10.279572    4.107925    44.163021    6.001220    -19.281368    0.009057    -21.040140    -0.999170    -5.025525    1.118076    -31.075462    -49.036350    -16.269421    1.780489    50.549583    5.632439    11.036911    -17.263531    -17.271206    -0.238507    -3.129347    0.259107    
12.032032    73.984665    118.781372    -2.462207    -25.641071    -175.098083    -3.687538    -4.644063    0.082740    2.249212    8.018478    0.074818    0.953276    -6.268440    0.882535    2.803308    -25.367632    1.722549    6.777130    -2.169271    -18.719107    -21.796272    3.233546    -76.139412    13.253208    1.561394    -13.190553    21.714830    2.400202    -3.648533    -9.152243    2.841873    14.819853    20.293957    -0.622581    67.922424    -20.262907    -2.245080    21.501167    -12.963768    1.007838    5.592645    23.272840    -54.400307    10.659129    4.328676    45.191570    5.818387    -19.330801    -0.499265    -21.227247    -0.923797    -5.016841    1.033717    -31.577555    -49.245636    -16.616880    1.773241    50.871704    5.637103    11.367110    -17.251740    -17.143034    -0.244105    -3.178200    0.265208    
11.565783    73.758438    118.810440    -2.306646    -25.716394    -175.106125    -3.719027    -4.549876    0.052903    2.379731    8.007088    0.034316    0.940273    -6.506577    0.851680    2.825910    -25.707426    1.707258    6.933139    -2.341794    -18.885433    -21.631138    3.074119    -76.244911    13.257214    1.659398    -13.239341    21.273832    2.536585    -3.554425    -9.224624    2.810405    14.862308    20.524656    -0.772315    67.983589    -20.444981    -2.242633    21.800783    -12.711919    1.127301    5.478231    23.395700    -55.046848    10.990170    4.490945    46.205963    5.717327    -19.341911    -0.948020    -21.419918    -0.842459    -5.024418    0.942715    -32.047901    -49.402218    -16.922163    1.772828    51.123466    5.619030    11.715763    -17.224880    -17.001486    -0.248708    -3.219712    0.270225    
11.100329    73.551735    118.833138    -2.146675    -25.779133    -175.114258    -3.738126    -4.458821    0.030733    2.495616    7.994422    0.002236    0.928460    -6.722971    0.813819    2.842224    -25.994869    1.681332    7.077951    -2.483623    -19.032089    -21.468683    2.969201    -76.290482    13.286025    1.737282    -13.313548    20.852337    2.653049    -3.483961    -9.283930    2.782619    14.895127    20.694490    -0.848051    67.964783    -20.636473    -2.275419    22.123997    -12.485412    1.216226    5.372926    23.524323    -55.663834    11.279068    4.597339    47.194584    5.691120    -19.318270    -1.347472    -21.612703    -0.758129    -5.045318    0.848385    -32.475254    -49.508816    -17.176300    1.777912    51.304134    5.578798    12.082541    -17.181286    -16.845928    -0.253537    -3.253856    0.275485    
10.635551    73.364548    118.849014    -1.981019    -25.828548    -175.127716    -3.743850    -4.372654    0.017356    2.597562    7.981996    -0.020508    0.919462    -6.917984    0.771555    2.855273    -26.226591    1.647986    7.211874    -2.594716    -19.159372    -21.309320    2.918512    -76.272812    13.340401    1.799001    -13.413152    20.470892    2.751436    -3.447791    -9.332829    2.757935    14.920535    20.799086    -0.851349    67.867203    -20.834930    -2.342017    22.463867    -12.289919    1.274042    5.279520    23.658541    -56.241501    11.534238    4.656471    48.148060    5.724792    -19.265026    -1.710878    -21.801432    -0.674586    -5.077345    0.754944    -32.852745    -49.569767    -17.372688    1.790118    51.415623    5.516270    12.466247    -17.118862    -16.677258    -0.259300    -3.282501    0.281759    
10.172569    73.197083    118.857658    -1.809599    -25.864233    -175.151108    -3.736078    -4.293326    0.013386    2.685693    7.971447    -0.033428    0.915113    -7.092949    0.727165    2.869042    -26.399441    1.610589    7.335299    -2.674575    -19.266726    -21.153601    2.920507    -76.189598    13.419476    1.850228    -13.538038    20.149488    2.835472    -3.455893    -9.373590    2.736621    14.939385    20.837603    -0.784695    67.694183    -21.038740    -2.439137    22.814966    -12.130596    1.302528    5.200405    23.795752    -56.769791    11.763205    4.681185    49.054668    5.797725    -19.188185    -2.051224    -21.982191    -0.596238    -5.116798    0.667316    -33.175724    -49.589092    -17.507801    1.811084    51.459923    5.432448    12.863716    -17.035189    -16.497374    -0.266833    -3.307156    0.289954    
9.703577    73.046379    118.858887    -1.629906    -25.886477    -175.189194    -3.715707    -4.221207    0.018713    2.762389    7.964635    -0.036384    0.916572    -7.250552    0.681727    2.887804    -26.518051    1.571510    7.449812    -2.725166    -19.357199    -20.998243    2.973712    -76.034088    13.523148    1.897643    -13.691741    19.899637    2.910859    -3.516785    -9.409225    2.718730    14.953604    20.812485    -0.649433    67.444435    -21.251703    -2.564076    23.181236    -12.009234    1.306023    5.135931    23.934288    -57.249535    11.976409    4.686088    49.920769    5.888986    -19.092567    -2.388592    -22.154510    -0.525481    -5.159543    0.588173    -33.448170    -49.570538    -17.583860    1.841585    51.439533    5.328323    13.279530    -16.926500    -16.303789    -0.276731    -3.329495    0.300720    
9.236830    72.915138    118.852211    -1.446041    -25.894650    -175.244781    -3.684482    -4.158923    0.033089    2.826462    7.963406    -0.029526    0.925083    -7.389732    0.637049    2.915384    -26.580112    1.533710    7.553530    -2.745661    -19.429611    -20.846136    3.075844    -75.804237    13.648808    1.945371    -13.873425    19.738159    2.980168    -3.636309    -9.440516    2.704418    14.962715    20.728865    -0.448465    67.123856    -21.471325    -2.709253    23.556999    -11.932503    1.290290    5.088377    24.065533    -57.664886    12.173717    4.685079    50.722610    5.975454    -18.985622    -2.731679    -22.311041    -0.465671    -5.199503    0.521268    -33.665539    -49.516029    -17.602505    1.879945    51.355484    5.209315    13.704282    -16.793255    -16.099056    -0.289362    -3.349952    0.314455    
8.767674    72.801613    118.837379    -1.257787    -25.889288    -175.320328    -3.644673    -4.107125    0.055827    2.879962    7.969687    -0.013833    0.941917    -7.513229    0.593356    2.953254    -26.590591    1.497942    7.647189    -2.737232    -19.486256    -20.695591    3.224547    -75.494339    13.796498    1.996242    -14.087255    19.667673    3.046503    -3.816509    -9.469253    2.693537    14.966948    20.594786    -0.182598    66.731773    -21.701099    -2.869086    23.948748    -11.902450    1.263185    5.057136    24.183451    -58.015591    12.358216    4.689627    51.462215    6.040971    -18.872450    -3.098093    -22.448475    -0.416031    -5.228217    0.465728    -33.833580    -49.426208    -17.570351    1.924878    51.207603    5.077592    14.140064    -16.633799    -15.879672    -0.305228    -3.368561    0.331705    
8.295527    72.705666    118.814026    -1.066829    -25.870953    -175.416992    -3.598842    -4.067247    0.085853    2.923940    7.985314    0.009605    0.967764    -7.622797    0.550709    3.002246    -26.552853    1.464212    7.730453    -2.700259    -19.528315    -20.547367    3.417682    -75.100075    13.966650    2.048850    -14.337274    19.686874    3.109677    -4.053473    -9.496177    2.686341    14.965314    20.420380    0.147259    66.268997    -21.942820    -3.036970    24.361923    -11.921642    1.232970    5.041872    24.279964    -58.298168    12.528153    4.706762    52.134842    6.074388    -18.758118    -3.501806    -22.560915    -0.374762    -5.236089    0.419536    -33.956432    -49.299931    -17.494762    1.973886    50.994232    4.936485    14.585809    -16.448400    -15.642800    -0.324597    -3.384810    0.352763    
7.821062    72.627579    118.781921    -0.875478    -25.841011    -175.534531    -3.549805    -4.040772    0.121552    2.959594    8.011189    0.039563    1.003275    -7.719887    0.508904    3.060870    -26.470844    1.431600    7.802340    -2.635127    -19.556589    -20.402925    3.653407    -74.618721    14.160795    2.095777    -14.628458    19.787987    3.165334    -4.334582    -9.520912    2.682600    14.957038    20.217741    0.540370    65.735359    -22.197754    -3.207249    24.804007    -11.991250    1.207710    5.040725    24.346912    -58.510078    12.679428    4.738296    52.734627    6.072094    -18.645508    -3.953321    -22.642653    -0.339879    -5.213394    0.380468    -34.039360    -49.135979    -17.385830    2.022991    50.713669    4.791554    15.039376    -16.238476    -15.386639    -0.347811    -3.397727    0.377999    
7.343318    72.567451    118.740868    -0.685075    -25.802073    -175.672134    -3.499881    -4.030153    0.161550    2.988156    8.047828    0.074726    1.048615    -7.805558    0.467127    3.127736    -26.349552    1.398730    7.862629    -2.543198    -19.572128    -20.264591    3.932419    -74.046326    14.382160    2.125057    -14.967549    19.958727    3.205844    -4.643664    -9.543368    2.683286    14.940403    20.000454    0.996976    65.128967    -22.468819    -3.378396    25.286022    -12.110117    1.192639    5.050893    24.378895    -58.652145    12.808860    4.781054    53.259563    6.036296    -18.534458    -4.462018    -22.688541    -0.309627    -5.153052    0.346561    -34.088402    -48.932976    -17.255905    2.065557    50.362797    4.650531    15.500738    -16.004568    -15.108552    -0.375212    -3.405782    0.407781    
